#!OML:ASF H:\Dans Jumps\Project 1\Capture day 1\Session 1\subject.ASF
:FULLY-SPECIFIED
:DEGREES
221
root 0.14939 15.6909 -4.78963 -3.47397 1.34507 -1.28068
lowerback 8.83395 0.890381 -0.0616552
upperback 5.30957 1.18615 1.33561
thorax 0.515477 0.574643 1.31416
lowerneck -12.8732 -1.01284 -2.7724
upperneck 35.4557 -1.73907 2.96512
head 14.3635 -0.700264 1.43499
rclavicle 7.45443e-016 1.17283e-014
rhumerus -21.8315 -27.0136 -78.6628
rradius 16.6722
rwrist 50.9601
rhand -18.4577 -25.2775
rfingers 7.12502
rthumb 7.82863 -55.1126
lclavicle 7.45443e-016 1.17283e-014
lhumerus -22.4493 19.7453 83.6805
lradius 10.5801
lwrist -8.65064
lhand -29.6932 -6.70823
lfingers 7.12502
lthumb -3.02122 23.2501
rfemur -34.346 -2.97761 19.5533
rtibia 61.7171
rfoot -22.0698 -3.20338
rtoes 1.44005
lfemur -32.9698 7.76859 -16.5609
ltibia 60.6372
lfoot -19.8528 8.28654
ltoes -7.27228
222
root 0.155606 15.6655 -4.71959 -3.5597 1.02747 -1.10736
lowerback 8.74012 0.954776 -0.154783
upperback 5.31927 1.26352 1.25243
thorax 0.574983 0.612082 1.27593
lowerneck -12.7917 -0.987784 -2.72143
upperneck 35.8615 -1.73642 2.98669
head 14.5332 -0.690654 1.44219
rclavicle 2.98177e-015 -8.74653e-015
rhumerus -21.9088 -25.9153 -79.151
rradius 16.8627
rwrist 49.8674
rhand -18.3186 -25.0759
rfingers 7.12502
rthumb 7.96289 -54.9059
lclavicle 2.98177e-015 -8.74653e-015
lhumerus -23.1983 20.0044 83.3383
lradius 10.263
lwrist -9.83881
lhand -29.1021 -6.05111
lfingers 7.12502
lthumb -2.45031 23.9146
rfemur -34.2293 -3.05548 19.3888
rtibia 62.1689
rfoot -22.6606 -3.15112
rtoes 1.11048
lfemur -32.6939 7.95588 -16.6916
ltibia 61.0283
lfoot -20.2709 8.83393
ltoes -7.6042
223
root 0.161559 15.6503 -4.65079 -3.51859 0.708167 -0.931577
lowerback 8.52273 1.01286 -0.263719
upperback 5.29792 1.33171 1.17237
thorax 0.669875 0.644455 1.25255
lowerneck -12.7226 -0.963947 -2.67672
upperneck 36.2358 -1.72892 2.99622
head 14.6928 -0.681414 1.44592
rclavicle 1.19271e-014 -1.51076e-014
rhumerus -22.0264 -24.6682 -79.6694
rradius 17.1855
rwrist 48.6623
rhand -18.203 -24.8943
rfingers 7.12502
rthumb 8.07444 -54.7201
lclavicle 1.19271e-014 -1.51076e-014
lhumerus -23.9731 20.092 83.0411
lradius 10.0281
lwrist -11.1017
lhand -28.2435 -5.38982
lfingers 7.12502
lthumb -1.62106 24.5838
rfemur -34.1936 -3.07437 19.2182
rtibia 62.4957
rfoot -23.1668 -3.06785
rtoes 0.956508
lfemur -32.5022 8.09302 -16.8386
ltibia 61.2897
lfoot -20.6012 9.32761
ltoes -7.84349
224
root 0.167236 15.6457 -4.58343 -3.40211 0.403375 -0.799295
lowerback 8.23168 1.05667 -0.341254
upperback 5.26749 1.3838 1.1102
thorax 0.79656 0.669101 1.23292
lowerneck -12.6527 -0.942122 -2.63848
upperneck 36.5218 -1.71408 2.98697
head 14.8115 -0.672523 1.44261
rclavicle 1.95803e-014 -1.55052e-014
rhumerus -22.1885 -23.3665 -80.1871
rradius 17.6464
rwrist 47.4292
rhand -18.1268 -24.7611
rfingers 7.12502
rthumb 8.14797 -54.584
lclavicle 1.95803e-014 -1.55052e-014
lhumerus -24.7266 19.6827 82.9608
lradius 9.92348
lwrist -11.9845
lhand -27.2244 -4.77565
lfingers 7.12502
lthumb -0.63685 25.2031
rfemur -34.1702 -3.03806 19.0917
rtibia 62.6771
rfoot -23.5727 -2.97369
rtoes 0.903801
lfemur -32.3458 8.18101 -16.9492
ltibia 61.4246
lfoot -20.8473 9.75259
ltoes -7.98813
225
root 0.172577 15.6528 -4.51715 -3.2576 0.121004 -0.738402
lowerback 7.91429 1.08534 -0.352295
upperback 5.24267 1.42061 1.06957
thorax 0.945143 0.687219 1.20032
lowerneck -12.5752 -0.924216 -2.60108
upperneck 36.6986 -1.69599 2.95942
head 14.8766 -0.664902 1.4303
rclavicle -1.68967e-014 -1.43125e-014
rhumerus -22.4094 -22.1307 -80.6714
rradius 18.2355
rwrist 46.2222
rhand -18.1267 -24.6899
rfingers 7.12502
rthumb 8.14805 -54.5128
lclavicle -1.68967e-014 -1.43125e-014
lhumerus -25.5287 19.2772 82.8665
lradius 9.95074
lwrist -12.9129
lhand -26.0485 -4.32488
lfingers 7.12502
lthumb 0.498948 25.6543
rfemur -34.088 -2.95302 19.0395
rtibia 62.6891
rfoot -23.8716 -2.87259
rtoes 0.928178
lfemur -32.1645 8.23065 -16.9898
ltibia 61.422
lfoot -21.0073 10.1083
ltoes -8.04467
226
root 0.177621 15.672 -4.45194 -3.11517 -0.132403 -0.735748
lowerback 7.60001 1.0993 -0.308648
upperback 5.23523 1.44121 1.04757
thorax 1.11151 0.698171 1.15787
lowerneck -12.4944 -0.910097 -2.56455
upperneck 36.7653 -1.67541 2.91675
head 14.8881 -0.658386 1.41013
rclavicle -8.49804e-015 1.03368e-014
rhumerus -22.6708 -21.0476 -81.1023
rradius 18.9165
rwrist 45.0538
rhand -18.2029 -24.7023
rfingers 7.12502
rthumb 8.07453 -54.528
lclavicle -8.49804e-015 1.03368e-014
lhumerus -26.351 18.8653 82.7762
lradius 10.0893
lwrist -13.7155
lhand -24.8512 -4.06909
lfingers 7.12502
lthumb 1.65526 25.9042
rfemur -33.9043 -2.8292 19.045
rtibia 62.5205
rfoot -24.0642 -2.76214
rtoes 1.01977
lfemur -31.9136 8.24396 -16.9734
ltibia 61.2689
lfoot -21.0757 10.4075
ltoes -8.05789
227
root 0.182349 15.7028 -4.38753 -2.99497 -0.359736 -0.763329
lowerback 7.31441 1.10346 -0.234927
upperback 5.24688 1.45011 1.03377
thorax 1.28291 0.703919 1.10769
lowerneck -12.4107 -0.898886 -2.53274
upperneck 36.7383 -1.65455 2.87062
head 14.8538 -0.652834 1.38769
rclavicle 2.27608e-014 8.74653e-015
rhumerus -22.9588 -20.1852 -81.4629
rradius 19.6334
rwrist 43.947
rhand -18.362 -24.7866
rfingers 7.12502
rthumb 7.921 -54.6182
lclavicle 2.27608e-014 8.74653e-015
lhumerus -27.0959 18.1118 82.884
lradius 10.2936
lwrist -13.8573
lhand -23.7663 -3.90953
lfingers 7.12502
lthumb 2.7031 26.0531
rfemur -33.5964 -2.67062 19.0772
rtibia 62.1739
rfoot -24.1616 -2.64762
rtoes 1.14888
lfemur -31.5603 8.22666 -16.9273
ltibia 60.958
lfoot -21.0605 10.6584
ltoes -8.02141
